<svg width="42" height="40" fill="none" xmlns="http://www.w3.org/2000/svg"><path d="M6.648 31.144V22.6c1.296 1.008 2.784 2.88 3.504 4.224 6.576-4.464 7.92-11.664 8.4-20.784h4.128v11.616c0 3.264.432 4.32 1.296 5.136.912.816 2.4 1.248 3.696 1.248h3.072c.96 0 2.208-.192 2.928-.528a3.52 3.52 0 001.584-1.296v8.928H6.648zM12.936 6.04c-.288 7.248-1.104 13.008-6.288 16.464V6.04h6.288zm22.32 10.128c-1.2-.48-2.544-1.2-3.216-1.92-.048 1.824-.096 3.264-.24 3.888-.096.624-.288.912-.528 1.056-.192.096-.576.144-.912.144h-1.248c-.336 0-.576-.096-.768-.24-.144-.144-.192-.576-.192-1.296V6.04h7.104v10.128zM.888.568v39.216h5.76v-3.12h28.608V39.4h6V.568H.888z" fill="#EC671A"/></svg>