<svg width="31" height="32" xmlns="http://www.w3.org/2000/svg"><g clip-path="url(#clip0)"><path d="M30.97 9.408c-.073-1.7-.34-2.87-.72-3.882a7.837 7.837 0 00-1.794-2.838A7.61 7.61 0 0025.713.844C24.726.45 23.6.175 21.953.1c-1.66-.08-2.187-.1-6.396-.1-4.207 0-4.735.019-6.387.094-1.648.075-2.78.35-3.761.744a7.546 7.546 0 00-2.75 1.85A7.908 7.908 0 00.872 5.52C.49 6.539.224 7.7.152 9.402c-.08 1.713-.098 2.257-.098 6.601 0 4.345.019 4.889.091 6.595.073 1.7.34 2.87.721 3.882a7.92 7.92 0 001.792 2.838 7.609 7.609 0 002.744 1.844c.987.394 2.113.67 3.76.744 1.654.075 2.18.094 6.39.094 4.208 0 4.735-.019 6.389-.094 1.647-.075 2.779-.35 3.76-.744 2.083-.831 3.73-2.531 4.536-4.682.381-1.019.648-2.182.72-3.882.073-1.706.091-2.25.091-6.595s-.006-4.888-.078-6.595zm-2.792 13.065c-.067 1.563-.321 2.407-.533 2.97a5.228 5.228 0 01-2.943 3.038c-.545.218-1.369.481-2.877.55-1.635.075-2.125.093-6.261.093-4.137 0-4.633-.018-6.262-.093-1.514-.069-2.332-.331-2.877-.55a4.759 4.759 0 01-1.78-1.194 4.994 4.994 0 01-1.157-1.838c-.212-.563-.466-1.413-.533-2.97-.073-1.687-.09-2.194-.09-6.463 0-4.27.017-4.783.09-6.464.067-1.563.321-2.407.533-2.97a4.881 4.881 0 011.163-1.837 4.8 4.8 0 011.78-1.194C6.976 3.33 7.8 3.069 9.308 3c1.635-.075 2.126-.094 6.261-.094 4.143 0 4.633.019 6.262.094 1.514.068 2.332.331 2.877.55a4.755 4.755 0 011.78 1.194 4.992 4.992 0 011.157 1.838c.212.562.466 1.412.533 2.969.073 1.688.09 2.194.09 6.464 0 4.27-.017 4.77-.09 6.457z"/><path d="M15.557 7.783c-4.396 0-7.963 3.682-7.963 8.22 0 4.539 3.567 8.22 7.963 8.22 4.397 0 7.964-3.681 7.964-8.22 0-4.538-3.567-8.22-7.964-8.22zm0 13.552c-2.852 0-5.165-2.387-5.165-5.332 0-2.944 2.313-5.332 5.165-5.332 2.853 0 5.166 2.388 5.166 5.332 0 2.945-2.313 5.332-5.165 5.332zM25.695 7.458c0 1.06-.832 1.919-1.86 1.919-1.026 0-1.858-.86-1.858-1.92s.832-1.918 1.859-1.918c1.027 0 1.86.859 1.86 1.919z"/></g><defs><clipPath id="clip0"><path fill="#fff" d="M0 0h31v32H0z"/></clipPath></defs></svg>