<svg width="23" height="22" xmlns="http://www.w3.org/2000/svg"><path d="M20.462 22h-.143C3.698 21.044 1.338 7.015 1.009 2.733A2.54 2.54 0 013.342 0h4.66a1.691 1.691 0 011.573 1.066l1.286 3.165a1.693 1.693 0 01-.372 1.827l-1.802 1.82a7.93 7.93 0 006.412 6.43l1.835-1.819a1.691 1.691 0 011.836-.347l3.189 1.278A1.692 1.692 0 0123 14.994v4.468A2.539 2.539 0 0120.462 22zM3.546 1.692a.846.846 0 00-.846.846v.068c.389 5.01 2.884 16.856 17.712 17.702a.844.844 0 00.896-.796v-4.518l-3.189-1.278-2.427 2.412-.406-.051c-7.359-.922-8.357-8.284-8.357-8.36l-.05-.406L9.28 4.882l-1.268-3.19H3.546z"/><defs><linearGradient id="paint0_linear" x1="12" y1="0" x2="12" y2="22" gradientUnits="userSpaceOnUse"><stop stop-color="#494596"/><stop offset="1" stop-color="#312C98"/></linearGradient></defs></svg>