<?xml version="1.0" encoding="utf-8"?><svg viewBox="0 0 102 98" xmlns="http://www.w3.org/2000/svg" xmlns:xlink="http://www.w3.org/1999/xlink"><style>:root>svg{display:none}:root>svg:target{display:block}</style><svg width="46" height="7" fill="none" viewBox="0 0 46 7" id="2block-1" xmlns="http://www.w3.org/2000/svg"><path d="M.968.208V6.4h44.16V.208H.968z" fill="#EC671A"/></svg><svg width="44" height="36" fill="none" viewBox="0 0 44 36" id="2block-2" xmlns="http://www.w3.org/2000/svg"><path d="M4.672.92v6.288h34.656V.92H4.672zM.688 28.616v6.576h42.624v-6.576H.688z" fill="#EC671A"/></svg><svg width="42" height="39" fill="none" viewBox="0 0 42 39" id="2block-3" xmlns="http://www.w3.org/2000/svg"><path d="M2.808.952v5.76h36.384V.952H2.808zM6.12 16.264v5.808H35.4v-5.808H6.12zm-6 16.176v5.856h41.664V32.44H.12z" fill="#EC671A"/></svg><svg width="42" height="40" fill="none" viewBox="0 0 42 40" id="2block-4" xmlns="http://www.w3.org/2000/svg"><path d="M6.648 31.144V22.6c1.296 1.008 2.784 2.88 3.504 4.224 6.576-4.464 7.92-11.664 8.4-20.784h4.128v11.616c0 3.264.432 4.32 1.296 5.136.912.816 2.4 1.248 3.696 1.248h3.072c.96 0 2.208-.192 2.928-.528a3.52 3.52 0 001.584-1.296v8.928H6.648zM12.936 6.04c-.288 7.248-1.104 13.008-6.288 16.464V6.04h6.288zm22.32 10.128c-1.2-.48-2.544-1.2-3.216-1.92-.048 1.824-.096 3.264-.24 3.888-.096.624-.288.912-.528 1.056-.192.096-.576.144-.912.144h-1.248c-.336 0-.576-.096-.768-.24-.144-.144-.192-.576-.192-1.296V6.04h7.104v10.128zM.888.568v39.216h5.76v-3.12h28.608V39.4h6V.568H.888z" fill="#EC671A"/></svg><svg width="44" height="39" fill="none" viewBox="0 0 44 39" id="2block-5" xmlns="http://www.w3.org/2000/svg"><path d="M30.064 20.296v12.96H17.296a443.71 443.71 0 002.736-12.96h10.032zm5.952 12.96V14.68H21.088c.528-2.832 1.056-5.616 1.536-8.352h17.76V.712H3.472v5.616H16.24a341.32 341.32 0 01-1.44 8.352H5.056v5.616h8.688c-.912 4.608-1.872 9.12-2.832 12.96H.688v5.664h42.816v-5.664h-7.488z" fill="#EC671A"/></svg><svg width="45" height="45" fill="none" viewBox="0 0 45 45" id="2block-6" xmlns="http://www.w3.org/2000/svg"><path d="M44.264 10.76H25.976V.44h-6.24v10.32h-18v5.952h42.528V10.76zM11.768 21.848C9.368 28.952 5.144 36.104.392 40.376c1.584.96 4.512 2.928 5.808 4.128 4.608-4.944 9.36-12.96 12.24-20.928l-6.672-1.728zm15.744 2.256c4.224 6.384 8.928 14.88 10.752 20.256l6.432-2.832c-2.064-5.52-7.104-13.68-11.376-19.728l-5.808 2.304z" fill="#EC671A"/></svg><svg width="24" height="24" fill="none" viewBox="0 0 24 24" id="arrow" xmlns="http://www.w3.org/2000/svg"><path d="M4 9l8 8 8-8" stroke="#030304" stroke-width="2" stroke-linecap="round" stroke-linejoin="round"/></svg><svg width="24" height="18" viewBox="0 0 24 18" id="burger" xmlns="http://www.w3.org/2000/svg"><rect x="5.714" width="18.286" height="2.286" rx="1.143"/><rect y="6.857" width="24" height="2.286" rx="1.143"/><rect x="5.714" y="14.857" width="18.286" height="2.286" rx="1.143"/><defs><linearGradient id="paint0_linear" x1="14.857" y1="0" x2="14.857" y2="2.286" gradientUnits="userSpaceOnUse"><stop stop-color="#494596"/><stop offset="1" stop-color="#312C98"/></linearGradient><linearGradient id="paint1_linear" x1="12" y1="6.857" x2="12" y2="9.143" gradientUnits="userSpaceOnUse"><stop stop-color="#494596"/><stop offset="1" stop-color="#312C98"/></linearGradient><linearGradient id="paint2_linear" x1="14.857" y1="14.857" x2="14.857" y2="17.143" gradientUnits="userSpaceOnUse"><stop stop-color="#494596"/><stop offset="1" stop-color="#312C98"/></linearGradient></defs></svg><svg width="30" height="30" viewBox="0 0 30 30" id="close" xmlns="http://www.w3.org/2000/svg"><path d="M15 1.875C7.687 1.875 1.875 7.688 1.875 15c0 7.313 5.813 13.125 13.125 13.125 7.313 0 13.125-5.813 13.125-13.125 0-7.313-5.813-13.125-13.125-13.125zm0 24.375C8.812 26.25 3.75 21.187 3.75 15 3.75 8.812 8.813 3.75 15 3.75c6.188 0 11.25 5.063 11.25 11.25 0 6.188-5.063 11.25-11.25 11.25z"/><path d="M20.063 21.563L15 16.5l-5.063 5.063-1.5-1.5L13.5 15 8.437 9.937l1.5-1.5L15 13.5l5.063-5.063 1.5 1.5L16.5 15l5.063 5.063-1.5 1.5z"/><defs><linearGradient id="paint0_linear" x1="15" y1="1.875" x2="15" y2="28.125" gradientUnits="userSpaceOnUse"><stop stop-color="#494596"/><stop offset="1" stop-color="#312C98"/></linearGradient><linearGradient id="paint1_linear" x1="15" y1="8.438" x2="15" y2="21.563" gradientUnits="userSpaceOnUse"><stop stop-color="#494596"/><stop offset="1" stop-color="#312C98"/></linearGradient></defs></svg><svg width="33" height="33" fill="none" viewBox="0 0 33 33" id="ellipse" xmlns="http://www.w3.org/2000/svg"><circle cx="16.5" cy="16.5" r="13.5" stroke="#EC671A" stroke-width="6"/></svg><svg width="31" height="32" viewBox="0 0 31 32" id="instagram" xmlns="http://www.w3.org/2000/svg"><g clip-path="url(#clip0)"><path d="M30.97 9.408c-.073-1.7-.34-2.87-.72-3.882a7.837 7.837 0 00-1.794-2.838A7.61 7.61 0 0025.713.844C24.726.45 23.6.175 21.953.1 20.293.02 19.766 0 15.557 0 11.35 0 10.822.019 9.17.094c-1.648.075-2.78.35-3.761.744a7.546 7.546 0 00-2.75 1.85A7.908 7.908 0 00.872 5.52C.49 6.539.224 7.7.152 9.402c-.08 1.713-.098 2.257-.098 6.601 0 4.345.019 4.889.091 6.595.073 1.7.34 2.87.721 3.882a7.92 7.92 0 001.792 2.838 7.609 7.609 0 002.744 1.844c.987.394 2.113.67 3.76.744 1.654.075 2.18.094 6.39.094 4.208 0 4.735-.019 6.389-.094 1.647-.075 2.779-.35 3.76-.744 2.083-.831 3.73-2.531 4.536-4.682.381-1.019.648-2.182.72-3.882.073-1.706.091-2.25.091-6.595s-.006-4.888-.078-6.595zm-2.792 13.065c-.067 1.563-.321 2.407-.533 2.97a5.228 5.228 0 01-2.943 3.038c-.545.218-1.369.481-2.877.55-1.635.075-2.125.093-6.261.093-4.137 0-4.633-.018-6.262-.093-1.514-.069-2.332-.331-2.877-.55a4.759 4.759 0 01-1.78-1.194 4.994 4.994 0 01-1.157-1.838c-.212-.563-.466-1.413-.533-2.97-.073-1.687-.09-2.194-.09-6.463 0-4.27.017-4.783.09-6.464.067-1.563.321-2.407.533-2.97a4.881 4.881 0 011.163-1.837 4.8 4.8 0 011.78-1.194C6.976 3.33 7.8 3.069 9.308 3c1.635-.075 2.126-.094 6.261-.094 4.143 0 4.633.019 6.262.094 1.514.068 2.332.331 2.877.55a4.755 4.755 0 011.78 1.194 4.992 4.992 0 011.157 1.838c.212.562.466 1.412.533 2.969.073 1.688.09 2.194.09 6.464 0 4.27-.017 4.77-.09 6.457z"/><path d="M15.557 7.783c-4.396 0-7.963 3.682-7.963 8.22 0 4.539 3.567 8.22 7.963 8.22 4.397 0 7.964-3.681 7.964-8.22 0-4.538-3.567-8.22-7.964-8.22zm0 13.552c-2.852 0-5.165-2.387-5.165-5.332 0-2.944 2.313-5.332 5.165-5.332 2.853 0 5.166 2.388 5.166 5.332 0 2.945-2.313 5.332-5.165 5.332zM25.695 7.458c0 1.06-.832 1.919-1.86 1.919-1.026 0-1.858-.86-1.858-1.92s.832-1.918 1.859-1.918c1.027 0 1.86.859 1.86 1.919z"/></g><defs><clipPath id="clip0"><path fill="#fff" d="M0 0h31v32H0z"/></clipPath></defs></svg><svg width="2.001" height="15.027" fill="none" version="1.1" id="line" viewBox="0 0 2.001 15.027" xmlns="http://www.w3.org/2000/svg"><g id="g2755" clip-path="url(#clipPath2757)" transform="translate(-80.227 -570.043)"><g id="g2753"><g id="g2901" transform="translate(2.188 -5.938)" fill="#494596" fill-opacity="1"><path id="path1865" d="M78.04 576.98v9.028h2v-9.028z" fill="#494596" fill-opacity="1"/><path d="M78.04 585.918c0 .602.448 1.09 1 1.09.553 0 1-.488 1-1.09z" id="path1765" fill="#494596" fill-opacity="1" stroke-width="1.044"/><path d="M80.04 577.104c0-.62-.447-1.124-1-1.124-.552 0-1 .504-1 1.124z" id="path1763" fill="#494596" fill-opacity="1" stroke-width="1.06"/></g></g></g></svg><svg width="15.027" height="2.034" fill="none" version="1.1" id="line-2" viewBox="0 0 15.027 2.034" xmlns="http://www.w3.org/2000/svg"><g id="g2755" clip-path="url(#clipPath2757)" transform="translate(-75.714 -574.539)"><g id="g2753"><g id="g2901" transform="rotate(90.218 83.091 579.615)" fill="#494596" fill-opacity="1"><path id="path1865" d="M78.04 576.98v9.028h2v-9.028z" fill="#494596" fill-opacity="1"/><path d="M78.04 585.918c0 .602.448 1.09 1 1.09.553 0 1-.488 1-1.09z" id="path1765" fill="#494596" fill-opacity="1" stroke-width="1.044"/><path d="M80.04 577.104c0-.62-.447-1.124-1-1.124-.552 0-1 .504-1 1.124z" id="path1763" fill="#494596" fill-opacity="1" stroke-width="1.06"/></g></g></g></svg><svg width="23" height="22" viewBox="0 0 23 22" id="phone" xmlns="http://www.w3.org/2000/svg"><path d="M20.462 22h-.143C3.698 21.044 1.338 7.015 1.009 2.733A2.54 2.54 0 013.342 0h4.66a1.691 1.691 0 011.573 1.066l1.286 3.165a1.693 1.693 0 01-.372 1.827l-1.802 1.82a7.93 7.93 0 006.412 6.43l1.835-1.819a1.691 1.691 0 011.836-.347l3.189 1.278A1.692 1.692 0 0123 14.994v4.468A2.539 2.539 0 0120.462 22zM3.546 1.692a.846.846 0 00-.846.846v.068c.389 5.01 2.884 16.856 17.712 17.702a.844.844 0 00.896-.796v-4.518l-3.189-1.278-2.427 2.412-.406-.051c-7.359-.922-8.357-8.284-8.357-8.36l-.05-.406L9.28 4.882l-1.268-3.19H3.546z"/><defs><linearGradient id="paint0_linear" x1="12" y1="0" x2="12" y2="22" gradientUnits="userSpaceOnUse"><stop stop-color="#494596"/><stop offset="1" stop-color="#312C98"/></linearGradient></defs></svg><svg width="81" height="81" viewBox="0 0 81 81" id="play" xmlns="http://www.w3.org/2000/svg"><g opacity=".7"><path d="M40.5 75.938a35.438 35.438 0 110-70.876 35.438 35.438 0 010 70.876zm0 5.062a40.5 40.5 0 100-81 40.5 40.5 0 000 81z"/><path d="M31.747 25.59a2.532 2.532 0 012.632.193L52.1 38.44a2.532 2.532 0 010 4.12l-17.72 12.657a2.532 2.532 0 01-4.004-2.06V27.843a2.531 2.531 0 011.372-2.253z"/></g></svg><svg width="102" height="98" fill="none" viewBox="0 0 102 98" id="polygon-1" xmlns="http://www.w3.org/2000/svg"><path d="M58.843 21.648c3.854-2.546 9.019.035 9.297 4.645l3.46 57.346c.278 4.61-4.539 7.793-8.67 5.729L11.535 63.69c-4.132-2.064-4.48-7.827-.626-10.373l47.933-31.67z" stroke="#373397" stroke-width="8"/></svg><svg width="22" height="22" viewBox="0 0 22 22" id="slider-arrow-left" xmlns="http://www.w3.org/2000/svg"><path d="M11 21c5.523 0 10-4.477 10-10S16.523 1 11 1 1 5.477 1 11s4.477 10 10 10z"/><path d="M12.5 7l-4 4 4 4"/></svg><svg width="22" height="22" viewBox="0 0 22 22" id="slider-arrow-right" xmlns="http://www.w3.org/2000/svg"><path d="M11 1C5.477 1 1 5.477 1 11s4.477 10 10 10 10-4.477 10-10S16.523 1 11 1z"/><path d="M9.5 15l4-4-4-4"/></svg><svg width="25" height="26" viewBox="0 0 25 26" id="telegram" xmlns="http://www.w3.org/2000/svg"><g clip-path="url(#clip0)"><path d="M.432 12.13l6.114 3.168a.757.757 0 00.742-.025l5.441-3.29-3.293 3.035a.828.828 0 00-.264.61v7.393c0 .78.957 1.108 1.406.489l2.643-3.655 6.535 3.871c.459.274 1.046 0 1.152-.546l4.076-21.125c.122-.635-.485-1.152-1.05-.916L.497 10.645c-.63.256-.67 1.171-.065 1.484zm22.74-8.937L19.59 21.758l-6.193-3.668a.764.764 0 00-1.011.217l-1.651 2.283v-4.598l8.907-8.207c.705-.649-.105-1.803-.91-1.31L6.866 13.647l-4.159-2.155 20.464-8.3z"/></g><defs><clipPath id="clip0"><path fill="#fff" d="M0 0h25v26H0z"/></clipPath></defs></svg><svg width="25" height="25" viewBox="0 0 25 25" id="whatsapp" xmlns="http://www.w3.org/2000/svg"><path fill-rule="evenodd" clip-rule="evenodd" d="M18.14 14.981c-.31-.155-1.832-.903-2.115-1.007-.283-.103-.49-.154-.697.156-.206.309-.799 1.006-.979 1.213-.181.207-.361.232-.67.078-.31-.156-1.308-.482-2.49-1.537-.92-.82-1.542-1.834-1.722-2.144-.18-.31-.02-.478.135-.632.14-.138.31-.361.465-.541.155-.181.206-.31.309-.518.104-.206.052-.386-.026-.542-.077-.155-.696-1.679-.954-2.299-.251-.603-.506-.52-.696-.53a13.38 13.38 0 00-.594-.011c-.206 0-.541.077-.825.387-.284.31-1.083 1.059-1.083 2.582s1.108 2.995 1.263 3.203c.156.206 2.183 3.333 5.288 4.673.74.32 1.316.51 1.764.652.742.236 1.417.203 1.95.122.594-.088 1.832-.748 2.09-1.471.257-.723.257-1.343.18-1.472-.077-.13-.283-.207-.593-.362zm-5.647 7.712h-.005a10.28 10.28 0 01-5.241-1.436l-.375-.223-3.898 1.023 1.04-3.8-.244-.39a10.272 10.272 0 01-1.574-5.478c.002-5.677 4.62-10.296 10.3-10.296 2.75 0 5.336 1.073 7.28 3.019a10.232 10.232 0 013.012 7.284c-.002 5.677-4.62 10.297-10.295 10.297zm8.762-19.06A12.307 12.307 0 0012.492 0C5.665 0 .106 5.557.104 12.387a12.358 12.358 0 001.653 6.193L0 25l6.567-1.723a12.377 12.377 0 005.92 1.508h.006c6.827 0 12.385-5.557 12.387-12.388a12.313 12.313 0 00-3.625-8.764z"/><defs><linearGradient id="paint0_linear" x1="12.44" y1="0" x2="12.44" y2="25" gradientUnits="userSpaceOnUse"><stop stop-color="#494596"/><stop offset="1" stop-color="#312C98"/></linearGradient></defs></svg></svg>