<svg width="25" height="26" xmlns="http://www.w3.org/2000/svg"><g clip-path="url(#clip0)"><path d="M.432 12.13l6.114 3.168a.757.757 0 00.742-.025l5.441-3.29-3.293 3.035a.828.828 0 00-.264.61v7.393c0 .78.957 1.108 1.406.489l2.643-3.655 6.535 3.871c.459.274 1.046 0 1.152-.546l4.076-21.125c.122-.635-.485-1.152-1.05-.916L.497 10.645c-.63.256-.67 1.171-.065 1.484zm22.74-8.937L19.59 21.758l-6.193-3.668a.764.764 0 00-1.011.217l-1.651 2.283v-4.598l8.907-8.207c.705-.649-.105-1.803-.91-1.31L6.866 13.647l-4.159-2.155 20.464-8.3z"/></g><defs><clipPath id="clip0"><path fill="#fff" d="M0 0h25v26H0z"/></clipPath></defs></svg>