<svg width="25" height="25" xmlns="http://www.w3.org/2000/svg"><path fill-rule="evenodd" clip-rule="evenodd" d="M18.14 14.981c-.31-.155-1.832-.903-2.115-1.007-.283-.103-.49-.154-.697.156-.206.309-.799 1.006-.979 1.213-.181.207-.361.232-.67.078-.31-.156-1.308-.482-2.49-1.537-.92-.82-1.542-1.834-1.722-2.144-.18-.31-.02-.478.135-.632.14-.138.31-.361.465-.541.155-.181.206-.31.309-.518.104-.206.052-.386-.026-.542-.077-.155-.696-1.679-.954-2.299-.251-.603-.506-.52-.696-.53a13.38 13.38 0 00-.594-.011c-.206 0-.541.077-.825.387-.284.31-1.083 1.059-1.083 2.582s1.108 2.995 1.263 3.203c.156.206 2.183 3.333 5.288 4.673.74.32 1.316.51 1.764.652.742.236 1.417.203 1.95.122.594-.088 1.832-.748 2.09-1.471.257-.723.257-1.343.18-1.472-.077-.13-.283-.207-.593-.362zm-5.647 7.712h-.005a10.28 10.28 0 01-5.241-1.436l-.375-.223-3.898 1.023 1.04-3.8-.244-.39a10.272 10.272 0 01-1.574-5.478c.002-5.677 4.62-10.296 10.3-10.296 2.75 0 5.336 1.073 7.28 3.019a10.232 10.232 0 013.012 7.284c-.002 5.677-4.62 10.297-10.295 10.297zm8.762-19.06A12.307 12.307 0 0012.492 0C5.665 0 .106 5.557.104 12.387a12.358 12.358 0 001.653 6.193L0 25l6.567-1.723a12.377 12.377 0 005.92 1.508h.006c6.827 0 12.385-5.557 12.387-12.388a12.313 12.313 0 00-3.625-8.764z"/><defs><linearGradient id="paint0_linear" x1="12.44" y1="0" x2="12.44" y2="25" gradientUnits="userSpaceOnUse"><stop stop-color="#494596"/><stop offset="1" stop-color="#312C98"/></linearGradient></defs></svg>